<svg width="30" height="30" viewBox="0 0 30 30" fill="none" xmlns="http://www.w3.org/2000/svg">
<g clip-path="url(#clip0_2353_16247)">
<g clip-path="url(#clip1_2353_16247)">
<rect width="30" height="30" rx="7" fill="#0D79E6"/>
<path d="M15.749 24.698C14.8877 24.698 14.066 24.5903 13.284 24.375C12.502 24.1597 11.8107 23.8367 11.21 23.406C10.6093 22.9753 10.1333 22.4427 9.782 21.808C9.442 21.1733 9.272 20.4423 9.272 19.615C9.272 18.8443 9.40233 18.1303 9.663 17.473C9.935 16.8157 10.3033 16.2207 10.768 15.688C11.244 15.1553 11.7993 14.6793 12.434 14.26C13.0687 13.8407 13.7543 13.4837 14.491 13.189C15.239 12.8943 16.0097 12.662 16.803 12.492L16.837 12.798C16.565 12.7187 16.259 12.628 15.919 12.526C15.5903 12.424 15.222 12.3277 14.814 12.237C14.4173 12.1463 13.981 12.0727 13.505 12.016C13.0403 11.948 12.536 11.914 11.992 11.914C11.584 11.914 11.1987 11.9423 10.836 11.999C10.4847 12.0443 10.173 12.101 9.901 12.169L9.544 9.857C9.87267 9.755 10.224 9.67 10.598 9.602C10.9833 9.534 11.38 9.5 11.788 9.5C12.468 9.5 13.0913 9.55667 13.658 9.67C14.2247 9.772 14.746 9.90233 15.222 10.061C15.7093 10.2197 16.1683 10.384 16.599 10.554C17.0297 10.7127 17.449 10.8487 17.857 10.962C18.2763 11.064 18.7013 11.115 19.132 11.115H19.812L20.033 13.665C19.6023 13.665 19.098 13.7217 18.52 13.835C17.942 13.9483 17.3357 14.1127 16.701 14.328C16.0777 14.5433 15.4657 14.8097 14.865 15.127C14.2757 15.4443 13.7373 15.8127 13.25 16.232C12.7627 16.6513 12.3717 17.116 12.077 17.626C11.7937 18.136 11.652 18.6913 11.652 19.292C11.652 19.836 11.771 20.3007 12.009 20.686C12.247 21.0713 12.57 21.383 12.978 21.621C13.386 21.859 13.845 22.0347 14.355 22.148C14.8763 22.2613 15.4147 22.318 15.97 22.318C16.5933 22.318 17.2223 22.25 17.857 22.114C18.503 21.978 19.149 21.7853 19.795 21.536L20.492 23.61C19.6647 23.9953 18.843 24.273 18.027 24.443C17.211 24.613 16.4517 24.698 15.749 24.698ZM16.344 20.601C16.0947 20.601 15.8793 20.516 15.698 20.346C15.528 20.176 15.443 19.9663 15.443 19.717C15.443 19.4563 15.528 19.2353 15.698 19.054C15.8793 18.884 16.0947 18.799 16.344 18.799C16.5933 18.799 16.803 18.884 16.973 19.054C17.1543 19.2353 17.245 19.4563 17.245 19.717C17.245 19.9663 17.1543 20.176 16.973 20.346C16.803 20.516 16.5933 20.601 16.344 20.601ZM15.137 18.612C14.8877 18.612 14.6723 18.527 14.491 18.357C14.321 18.187 14.236 17.9773 14.236 17.728C14.236 17.4673 14.321 17.252 14.491 17.082C14.6723 16.9007 14.8877 16.81 15.137 16.81C15.3863 16.81 15.596 16.9007 15.766 17.082C15.9473 17.252 16.038 17.4673 16.038 17.728C16.038 17.9773 15.9473 18.187 15.766 18.357C15.596 18.527 15.3863 18.612 15.137 18.612ZM17.534 18.612C17.2847 18.612 17.0693 18.527 16.888 18.357C16.718 18.187 16.633 17.9773 16.633 17.728C16.633 17.4673 16.718 17.252 16.888 17.082C17.0693 16.9007 17.2847 16.81 17.534 16.81C17.7833 16.81 17.993 16.9007 18.163 17.082C18.3443 17.252 18.435 17.4673 18.435 17.728C18.435 17.9773 18.3443 18.187 18.163 18.357C17.993 18.527 17.7833 18.612 17.534 18.612Z" fill="white"/>
</g>
</g>
<defs>
<clipPath id="clip0_2353_16247">
<rect width="30" height="30" fill="white"/>
</clipPath>
<clipPath id="clip1_2353_16247">
<rect width="30" height="30" rx="7" fill="white"/>
</clipPath>
</defs>
</svg>
